<svg id="Camada_1" data-name="Camada 1" xmlns="http://www.w3.org/2000/svg" viewBox="0 0 950 950"><defs><style>.cls-1{fill:#fff;}</style></defs><circle cx="475" cy="475" r="475"/><path class="cls-1" d="M334.62,436.16c0-19.41-.11-38.06,0-56.71.5-73.36,52.18-131.51,125.12-140.87,68.54-8.8,133.78,37,151.25,106.93,2.85,11.4,3.76,23.45,4.2,35.25.68,18.2.18,36.44.18,54.47,34.66,6.73,43.39,17.3,43.39,51.65q0,90.57,0,181.13c0,29.66-14.89,44.45-44.76,44.46q-139,.06-278.06,0c-29.87,0-44.68-14.79-44.7-44.51q-.06-93.11,0-186.22C291.24,452.93,303.91,439.18,334.62,436.16Zm34.48,78.57v122.5h211V514.73Zm169.22-78.27c0-22.58,1.65-44.68-.4-66.44-2.82-30.06-28-52.77-57.76-55.25-28.62-2.4-58.67,14.93-64.6,42.91-5.41,25.53-4.16,52.47-5.85,78.78Z"/><path d="M369.1,514.73h211v122.5h-211Z"/><path d="M538.32,436.46H409.71c1.69-26.31.44-53.25,5.85-78.78,5.93-28,36-45.31,64.6-42.91C509.87,317.25,535.1,340,537.92,370,540,391.78,538.32,413.88,538.32,436.46Z"/></svg>